<svg width="24" height="25" viewBox="0 0 24 25" fill="none" xmlns="http://www.w3.org/2000/svg">
<g id="B. Digital,  Tech &#38; Docs/e. Arrows/BE090-chevron down | SYMBOLS, arrow, chevron">
<path id="Vector" d="M19.0041 9.53864C19.0056 9.80406 18.9013 10.0592 18.7141 10.2476L12.7141 16.2389C12.5263 16.428 12.2707 16.5343 12.0041 16.5343C11.7375 16.5343 11.4819 16.428 11.2941 16.2389L5.29409 10.2476C4.90197 9.85606 4.90197 9.22123 5.29409 8.82967C5.68621 8.43812 6.32197 8.43812 6.71409 8.82967L12.0041 14.122L17.2941 8.82967C17.4819 8.64063 17.7375 8.5343 18.0041 8.5343C18.2707 8.5343 18.5263 8.64063 18.7141 8.82967C18.9013 9.01812 19.0056 9.27323 19.0041 9.53864Z" fill="#FFFFFF"/>
</g>
</svg>
